<svg xmlns="http://www.w3.org/2000/svg" xmlns:xlink="http://www.w3.org/1999/xlink" width="1080" zoomAndPan="magnify" viewBox="0 0 810 809.999993" height="1080" preserveAspectRatio="xMidYMid meet" version="1.0"><defs><clipPath id="id1"><path d="M 108.542969 396.726562 L 507.953125 396.726562 L 507.953125 543.78125 L 108.542969 543.78125 Z M 108.542969 396.726562 " clip-rule="nonzero"/></clipPath><clipPath id="id2"><path d="M 486 266.40625 L 701.792969 266.40625 L 701.792969 461 L 486 461 Z M 486 266.40625 " clip-rule="nonzero"/></clipPath></defs><path fill="#5271ff" d="M 511.289062 433.152344 L 511.273438 433.089844 L 511.269531 433.09375 Z M 511.289062 433.152344 " fill-opacity="1" fill-rule="nonzero"/><path fill="#5271ff" d="M 351.800781 470.308594 L 351.8125 470.308594 C 351.792969 470.261719 351.769531 470.210938 351.75 470.164062 L 351.738281 470.164062 C 351.757812 470.214844 351.78125 470.261719 351.800781 470.308594 " fill-opacity="1" fill-rule="nonzero"/><path fill="#5271ff" d="M 264.753906 497.746094 C 264.753906 497.757812 264.761719 497.765625 264.765625 497.773438 L 264.757812 497.746094 L 264.753906 497.746094 " fill-opacity="1" fill-rule="nonzero"/><g clip-path="url(#id1)"><path fill="#5271ff" d="M 111.066406 517.808594 C 112.5 521.304688 114.578125 524.570312 117.09375 527.34375 C 119.621094 530.121094 122.539062 532.394531 125.566406 534.242188 C 131.664062 537.921875 138.128906 540.015625 144.492188 541.390625 C 150.871094 542.742188 157.214844 543.375 163.496094 543.648438 C 169.769531 543.921875 175.992188 543.746094 182.15625 543.371094 C 194.484375 542.59375 206.605469 540.851562 218.550781 538.511719 C 224.515625 537.332031 230.441406 536.035156 236.324219 534.570312 C 242.207031 533.132812 248.054688 531.546875 253.855469 529.859375 C 262.917969 527.238281 271.886719 524.351562 280.769531 521.261719 C 286.523438 519.261719 292.242188 517.179688 297.9375 515.03125 C 305.964844 512.007812 313.941406 508.847656 321.871094 505.617188 C 335.132812 500.183594 348.28125 494.527344 361.363281 488.753906 C 366.667969 486.410156 371.960938 484.042969 377.253906 481.671875 C 380.773438 480.097656 384.285156 478.515625 387.789062 476.933594 C 409.585938 467.058594 431.269531 456.945312 452.824219 446.558594 C 467.210938 439.601562 481.703125 432.546875 496.007812 425.382812 C 498.625 424.074219 502.917969 421.894531 505.773438 420.445312 C 507.679688 419.472656 508.042969 416.832031 506.386719 415.472656 C 506.289062 415.394531 506.199219 415.324219 506.101562 415.269531 C 503.558594 413.71875 500.375 413.675781 497.796875 415.15625 C 496.285156 416.019531 494.671875 416.953125 493.523438 417.617188 C 479.273438 425.871094 464.851562 433.808594 450.222656 441.363281 C 429.050781 452.316406 407.5 462.539062 385.550781 471.808594 C 384.015625 472.46875 382.472656 473.101562 380.933594 473.738281 C 380.148438 474.074219 379.367188 474.394531 378.582031 474.710938 C 378.234375 474.855469 377.875 474.996094 377.53125 475.136719 C 377.003906 475.355469 376.46875 475.582031 375.9375 475.789062 C 375.414062 476.003906 374.898438 476.21875 374.375 476.429688 C 373.980469 476.59375 373.585938 476.75 373.191406 476.90625 C 372.25 477.289062 371.304688 477.667969 370.367188 478.042969 C 370.355469 478.039062 370.34375 478.054688 370.328125 478.054688 C 368.972656 478.589844 367.625 479.121094 366.269531 479.660156 C 364.917969 480.1875 363.53125 480.605469 362.171875 481.128906 C 360.816406 481.648438 359.457031 482.15625 358.0625 482.578125 L 358.03125 482.585938 C 345.101562 487.960938 331.816406 492.207031 318.546875 496.476562 C 309.203125 499.488281 299.773438 502.207031 290.402344 505.046875 L 290.378906 505.054688 C 284.507812 506.835938 278.644531 508.617188 272.65625 509.949219 C 272.644531 509.953125 272.644531 509.953125 272.640625 509.953125 L 272.574219 509.972656 C 265.171875 512.222656 257.625 513.96875 250.125 515.777344 C 247.253906 516.464844 244.398438 517.1875 241.523438 517.835938 C 238.652344 518.492188 235.792969 519.160156 232.910156 519.769531 C 227.15625 520.988281 221.417969 522.1875 215.648438 523.234375 C 204.132812 525.332031 192.589844 527.066406 181.097656 527.960938 C 175.347656 528.402344 169.628906 528.585938 163.96875 528.488281 C 158.316406 528.378906 152.730469 527.929688 147.40625 526.925781 C 142.089844 525.925781 136.996094 524.398438 132.773438 522.011719 C 128.546875 519.628906 125.328125 516.476562 123.496094 512.480469 C 121.625 508.507812 121.191406 503.613281 121.792969 498.480469 C 122.402344 493.332031 124.039062 488.035156 126.125 482.839844 C 128.226562 477.628906 130.847656 472.515625 133.738281 467.511719 C 136.613281 462.492188 139.800781 457.597656 143.136719 452.773438 C 149.824219 443.132812 157.210938 433.871094 164.875 424.804688 C 172.554688 415.757812 180.566406 406.917969 188.71875 398.171875 L 187.53125 396.898438 C 178.1875 404.398438 169.128906 412.296875 160.445312 420.636719 C 151.753906 428.96875 143.433594 437.753906 135.714844 447.167969 C 128.054688 456.625 120.886719 466.667969 115.398438 478.09375 C 112.6875 483.816406 110.414062 489.929688 109.246094 496.613281 C 108.664062 499.949219 108.386719 503.441406 108.636719 507.042969 C 108.871094 510.617188 109.648438 514.304688 111.066406 517.808594 " fill-opacity="1" fill-rule="nonzero"/></g><path fill="#5271ff" d="M 658.210938 465.746094 C 658.214844 465.769531 658.21875 465.785156 658.214844 465.792969 C 658.230469 465.8125 658.234375 465.832031 658.238281 465.851562 L 658.402344 465.734375 C 658.335938 465.734375 658.273438 465.742188 658.210938 465.746094 " fill-opacity="1" fill-rule="nonzero"/><g clip-path="url(#id2)"><path fill="#5271ff" d="M 487.894531 387.589844 L 502.09375 396.386719 L 505.933594 398.765625 C 505.933594 398.765625 515.285156 404.5625 515.355469 404.605469 C 517.515625 405.941406 519.46875 407.644531 520.675781 409.90625 C 521.730469 411.898438 522.042969 414.136719 522.484375 416.316406 C 523.15625 419.695312 523.832031 423.070312 524.511719 426.441406 L 524.515625 426.46875 L 528.332031 445.5 C 528.855469 448.058594 530.867188 449.011719 532.851562 447.628906 C 534.832031 446.242188 536.519531 442.96875 536.578125 440.359375 L 537.050781 419.921875 L 537.046875 419.910156 L 537.324219 406.183594 L 557.183594 393.382812 L 558.628906 392.449219 L 558.648438 392.4375 L 615.179688 356.007812 L 615.675781 358.40625 L 615.675781 358.417969 L 615.695312 358.449219 L 615.90625 358.417969 L 619.484375 372.574219 L 619.507812 372.65625 L 638.351562 458.058594 C 638.757812 459.839844 639.691406 461.023438 641.023438 460.617188 L 641.097656 460.597656 C 641.597656 460.441406 642.167969 460.199219 642.726562 459.8125 L 651.632812 453.570312 C 653.710938 452.125 655.367188 448.914062 655.285156 446.386719 L 654.535156 422.484375 C 655.167969 422.371094 655.613281 421.871094 656.167969 421.472656 L 660.085938 418.738281 L 661.140625 418.003906 C 663.21875 416.558594 664.160156 414.117188 662.710938 412.042969 L 661.65625 410.53125 C 661.195312 409.867188 660.535156 409.3125 659.789062 408.921875 C 658.210938 408.082031 656.226562 407.945312 654.820312 408.925781 L 653.917969 409.550781 L 653.421875 388.726562 C 654.054688 388.613281 654.875 388.65625 655.429688 388.273438 L 657.488281 386.832031 L 660.261719 384.894531 C 662.332031 383.453125 662.867188 380.484375 661.417969 378.414062 L 660.371094 376.90625 C 659.425781 375.554688 657.664062 374.613281 655.980469 374.53125 C 655.082031 374.476562 654.203125 374.675781 653.484375 375.179688 L 652.734375 375.695312 L 652.066406 352.191406 L 652.039062 351.136719 L 651.566406 334.652344 L 651.496094 332.332031 L 680.0625 314.398438 L 680.285156 314.257812 C 686.824219 310.023438 697.324219 298.523438 700.488281 290.058594 C 701.570312 287.164062 701.792969 284.621094 700.707031 282.851562 C 699.6875 281.191406 697.609375 280.363281 694.914062 280.136719 C 686.332031 279.40625 671.5 284.796875 664.816406 289.128906 C 664.695312 289.207031 654.675781 296.722656 640.046875 307.75 C 639.570312 308.109375 639.097656 308.476562 638.605469 308.84375 C 637.871094 309.398438 637.113281 309.96875 636.347656 310.539062 L 634.917969 309.960938 L 633.96875 309.574219 L 620.84375 304.21875 L 595.816406 294.015625 L 596.566406 293.5 C 598.644531 292.050781 599.265625 289.214844 597.824219 287.148438 L 596.773438 285.636719 C 595.324219 283.558594 592.769531 283.625 590.699219 285.066406 L 585.871094 288.4375 C 585.316406 288.824219 584.613281 288.957031 584.285156 289.515625 L 564.484375 281.195312 L 565.378906 280.578125 C 567.449219 279.128906 568.175781 276.382812 566.730469 274.304688 L 565.675781 272.796875 C 564.238281 270.722656 561.125 270.054688 559.054688 271.496094 L 554.070312 274.972656 C 553.515625 275.363281 553.085938 275.875 552.765625 276.425781 L 530.585938 267.410156 C 528.246094 266.457031 524.511719 266.691406 522.445312 268.140625 L 513.53125 274.355469 C 511.457031 275.800781 511.613281 278.277344 513.742188 279.65625 L 584.261719 325.332031 L 598.464844 334.535156 L 601.785156 336.6875 C 600.707031 337.503906 599.621094 338.316406 598.542969 339.136719 C 568.910156 361.484375 538.273438 384.59375 527.675781 392.59375 L 515.320312 388.363281 L 501.332031 383.574219 L 495.566406 381.597656 C 493.101562 380.753906 489.464844 381.199219 487.484375 382.574219 C 485.496094 383.964844 485.6875 386.21875 487.894531 387.589844 " fill-opacity="1" fill-rule="nonzero"/></g></svg>